<?xml version="1.0" encoding="UTF-8"?>
<svg width="750" height="1334" viewBox="0 0 750 1334" xmlns="http://www.w3.org/2000/svg">
  <defs>
    <linearGradient id="bgMobile" x1="0%" y1="0%" x2="100%" y2="100%">
      <stop offset="0%" stop-color="#6a11cb"/>
      <stop offset="100%" stop-color="#2575fc"/>
    </linearGradient>
    <linearGradient id="gradientHeaderMobile" x1="0%" y1="0%" x2="100%" y2="0%">
      <stop offset="0%" stop-color="#4a00e0"/>
      <stop offset="100%" stop-color="#8e2de2"/>
    </linearGradient>
    <filter id="shadowMobile" x="-10%" y="-10%" width="120%" height="120%">
      <feDropShadow dx="0" dy="10" stdDeviation="15" flood-color="rgba(0,0,0,0.3)"/>
    </filter>
  </defs>
  
  <!-- Фон -->
  <rect width="750" height="1334" fill="url(#bgMobile)"/>
  
  <!-- Имитация телефона -->
  <g transform="translate(25, 100)" filter="url(#shadowMobile)">
    <!-- Корпус телефона -->
    <rect x="0" y="0" width="700" height="1134" rx="50" fill="#222"/>
    <rect x="10" y="10" width="680" height="1114" rx="40" fill="url(#bgMobile)"/>
    
    <!-- Вырез камеры -->
    <rect x="330" y="20" width="40" height="15" rx="7.5" fill="#222"/>
    
    <!-- Контент приложения -->
    <g transform="translate(20, 50)">
      <!-- Заголовок -->
      <rect x="0" y="0" width="640" height="100" fill="url(#gradientHeaderMobile)" rx="20 20 0 0"/>
      <text x="320" y="50" font-family="'Segoe UI', Tahoma, Geneva, Verdana, sans-serif" 
            font-size="32" fill="white" text-anchor="middle" font-weight="bold">
        <tspan dy="10">✅ To-Do List</tspan>
      </text>
      
      <!-- Статус синхронизации -->
      <rect x="500" y="20" width="130" height="25" rx="12.5" fill="rgba(46, 204, 113, 0.3)"/>
      <text x="565" y="35" font-family="'Segoe UI'" font-size="12" fill="white" text-anchor="middle">
        <tspan dy="3">✓ Синхронизировано</tspan>
      </text>
      
      <!-- Кнопки облака -->
      <g transform="translate(0, 120)">
        <rect x="20" y="0" width="290" height="45" rx="22.5" fill="#2ecc71"/>
        <text x="165" y="27" font-family="'Segoe UI'" font-size="16" fill="white" text-anchor="middle">☁️ Сохранить в облако</text>
        
        <rect x="330" y="0" width="290" height="45" rx="22.5" fill="#3498db"/>
        <text x="475" y="27" font-family="'Segoe UI'" font-size="16" fill="white" text-anchor="middle">⬇️ Загрузить из облака</text>
      </g>
      
      <!-- Статистика -->
      <g transform="translate(0, 190)">
        <rect x="0" y="0" width="640" height="80" fill="rgba(255,255,255,0.1)"/>
        <!-- Всего задач -->
        <g transform="translate(107, 15)">
          <text x="0" y="0" font-family="'Segoe UI'" font-size="28" fill="white" text-anchor="middle" font-weight="bold">12</text>
          <text x="0" y="35" font-family="'Segoe UI'" font-size="14" fill="rgba(255,255,255,0.9)" text-anchor="middle">Всего задач</text>
        </g>
        <!-- Активных -->
        <g transform="translate(320, 15)">
          <text x="0" y="0" font-family="'Segoe UI'" font-size="28" fill="white" text-anchor="middle" font-weight="bold">7</text>
          <text x="0" y="35" font-family="'Segoe UI'" font-size="14" fill="rgba(255,255,255,0.9)" text-anchor="middle">Активных</text>
        </g>
        <!-- Выполнено -->
        <g transform="translate(533, 15)">
          <text x="0" y="0" font-family="'Segoe UI'" font-size="28" fill="white" text-anchor="middle" font-weight="bold">5</text>
          <text x="0" y="35" font-family="'Segoe UI'" font-size="14" fill="rgba(255,255,255,0.9)" text-anchor="middle">Выполнено</text>
        </g>
      </g>
      
      <!-- Основной контейнер -->
      <g transform="translate(0, 290)">
        <rect x="0" y="0" width="640" height="744" rx="20" fill="rgba(255,255,255,0.95)"/>
        
        <!-- Поле ввода -->
        <g transform="translate(20, 20)">
          <rect x="0" y="0" width="600" height="60" rx="15" fill="white" stroke="#e0e0e0" stroke-width="2"/>
          <text x="30" y="38" font-family="'Segoe UI'" font-size="18" fill="#888">Напишите задачу...</text>
          <rect x="480" y="10" width="100" height="40" rx="10" fill="url(#gradientHeaderMobile)"/>
          <text x="530" y="35" font-family="'Segoe UI'" font-size="18" fill="white" text-anchor="middle" font-weight="600">Добавить</text>
        </g>
        
        <!-- Фильтры -->
        <g transform="translate(20, 100)">
          <rect x="0" y="0" width="145" height="40" rx="20" fill="#4a00e0"/>
          <text x="72.5" y="25" font-family="'Segoe UI'" font-size="16" fill="white" text-anchor="middle">Все</text>
          
          <rect x="155" y="0" width="145" height="40" rx="20" fill="white" stroke="#ddd" stroke-width="1"/>
          <text x="227.5" y="25" font-family="'Segoe UI'" font-size="16" fill="#333" text-anchor="middle">Активные</text>
          
          <rect x="310" y="0" width="145" height="40" rx="20" fill="white" stroke="#ddd" stroke-width="1"/>
          <text x="382.5" y="25" font-family="'Segoe UI'" font-size="16" fill="#333" text-anchor="middle">Выполненные</text>
        </g>
        
        <!-- Список задач -->
        <g transform="translate(20, 160)">
          <!-- Задача 1 (выполненная) -->
          <rect x="0" y="0" width="600" height="70" rx="15" fill="#f9f9f9"/>
          <circle cx="45" cy="35" r="15" fill="white" stroke="#2ecc71" stroke-width="3"/>
          <path d="M40,35 L43,38 L50,30" stroke="#2ecc71" stroke-width="3" fill="none"/>
          <text x="75" y="35" font-family="'Segoe UI'" font-size="20" fill="#888" dy="7" style="text-decoration: line-through;">
            Сделать покупки
          </text>
          <text x="575" y="35" font-family="FontAwesome" font-size="20" fill="#ff4757" text-anchor="end">×</text>
          
          <!-- Задача 2 -->
          <rect x="0" y="80" width="600" height="70" rx="15" fill="white"/>
          <circle cx="45" cy="115" r="15" fill="white" stroke="#4a00e0" stroke-width="3"/>
          <text x="75" y="115" font-family="'Segoe UI'" font-size="20" fill="#333" dy="7">
            Позвонить маме
          </text>
          <text x="575" y="115" font-family="FontAwesome" font-size="20" fill="#ff4757" text-anchor="end">×</text>
          
          <!-- Задача 3 -->
          <rect x="0" y="160" width="600" height="70" rx="15" fill="white"/>
          <circle cx="45" cy="195" r="15" fill="white" stroke="#4a00e0" stroke-width="3"/>
          <text x="75" y="195" font-family="'Segoe UI'" font-size="20" fill="#333" dy="7">
            Отправить отчет
          </text>
          <text x="575" y="195" font-family="FontAwesome" font-size="20" fill="#ff4757" text-anchor="end">×</text>
          
          <!-- Задача 4 -->
          <rect x="0" y="240" width="600" height="70" rx="15" fill="white"/>
          <circle cx="45" cy="275" r="15" fill="white" stroke="#4a00e0" stroke-width="3"/>
          <text x="75" y="275" font-family="'Segoe UI'" font-size="20" fill="#333" dy="7">
            Запланировать встречу
          </text>
          <text x="575" y="275" font-family="FontAwesome" font-size="20" fill="#ff4757" text-anchor="end">×</text>
          
          <!-- Задача 5 (выполненная) -->
          <rect x="0" y="320" width="600" height="70" rx="15" fill="#f9f9f9"/>
          <circle cx="45" cy="355" r="15" fill="white" stroke="#2ecc71" stroke-width="3"/>
          <path d="M40,355 L43,358 L50,350" stroke="#2ecc71" stroke-width="3" fill="none"/>
          <text x="75" y="355" font-family="'Segoe UI'" font-size="20" fill="#888" dy="7" style="text-decoration: line-through;">
            Оплатить счета
          </text>
          <text x="575" y="355" font-family="FontAwesome" font-size="20" fill="#ff4757" text-anchor="end">×</text>
        </g>
        
        <!-- Кнопка экспорта -->
        <g transform="translate(20, 480)">
          <rect x="0" y="0" width="600" height="60" rx="15" fill="#3498db"/>
          <text x="300" y="35" font-family="'Segoe UI'" font-size="20" fill="white" text-anchor="middle" font-weight="600">
            📁 Экспортировать задачи
          </text>
        </g>
      </g>
    </g>
  </g>
  
  <!-- Нижняя панель навигации (имитация iOS) -->
  <g transform="translate(0, 1260)">
    <rect x="0" y="0" width="750" height="74" fill="rgba(255,255,255,0.9)"/>
    <!-- Иконки -->
    <g>
      <!-- Домой -->
      <circle cx="150" cy="37" r="5" fill="#4a00e0"/>
      <rect x="145" y="47" width="10" height="3" rx="1.5" fill="#4a00e0"/>
      
      <!-- Поиск -->
      <circle cx="300" cy="37" r="8" fill="none" stroke="#888" stroke-width="2"/>
      <line x1="305" y1="42" x2="315" y2="52" stroke="#888" stroke-width="2"/>
      
      <!-- Добавить (активная) -->
      <circle cx="450" cy="37" r="20" fill="url(#gradientHeaderMobile)"/>
      <text x="450" y="42" font-family="'Segoe UI'" font-size="24" fill="white" text-anchor="middle" font-weight="bold">+</text>
      
      <!-- Уведомления -->
      <circle cx="600" cy="37" r="8" fill="none" stroke="#888" stroke-width="2"/>
      <circle cx="603" cy="30" r="4" fill="#ff4757"/>
    </g>
  </g>
</svg>